<svg xmlns="http://www.w3.org/2000/svg" viewBox="0 0 994.15 390.56"><g id="Layer_2" data-name="Layer 2"><g id="Layer_1-2" data-name="Layer 1"><path d="M0,216.58c0-69.82,17.75-116,49.71-151.49C84,27.22,142,3.55,196.46,0V82.85c-54.44,15.38-87.58,58-87.58,105.33h82.85V387H0Zm262.74,0c0-69.82,17.75-116,49.71-151.49C346.77,27.22,404.76,3.55,459.2,0V82.85c-54.44,15.38-87.58,58-87.58,105.33h82.85V387H262.74Z"/><path d="M534.94,307.71c54.44-15.38,87.58-58,87.58-105.33H539.68V3.55H731.41V174c0,69.82-17.76,116-49.71,151.49-34.32,37.87-92.32,61.54-146.76,65.09Zm262.74,0c54.45-15.38,87.58-58,87.58-105.33H802.42V3.55H994.15V174c0,69.82-17.75,116-49.71,151.49-34.32,37.87-92.31,61.54-146.76,65.09Z"/></g></g></svg>