<?xml version="1.0" encoding="UTF-8"?><svg xmlns="http://www.w3.org/2000/svg" viewBox="0 0 150 149.21"><g id="a"/><g id="b"><g id="c"><path d="M87.72,94.64h-25.44v1.55c0,14.86,0,29.71,0,44.57,0,5.27-3.08,8.45-8.18,8.45-11.54,0-23.07,0-34.61,0-3.22,0-4.85-1.71-4.85-5.08,0-20.58,0-41.17,0-61.75,0-.49,0-.98,0-1.67-.73,0-1.35,0-1.98,0-2.85,0-5.71-.02-8.56,0-1.77,0-3.14-.81-3.78-2.33-.65-1.54-.34-3.13,.92-4.44,4.42-4.59,8.86-9.16,13.3-13.74C33.48,40.65,52.44,21.14,71.3,1.53c1.98-2.05,5.47-2.01,7.36-.04,23.25,24.12,46.57,48.16,69.89,72.22,1.29,1.33,1.83,2.81,1.15,4.61-.61,1.6-1.96,2.38-3.98,2.38-3.42,0-6.83,0-10.45,0v1.62c0,20.54,0,41.08,0,61.62,0,3.6-1.61,5.27-5.06,5.27-11.46,0-22.91,0-34.37,0-5.01,0-8.11-3.21-8.11-8.39,0-14.81,0-29.63,0-44.44,0-.54,0-1.07,0-1.73Z"/></g></g></svg>